HIERARCHY
ROOT hip
{
	OFFSET 0.000000 0.000000 0.000000 
	CHANNELS 6 Xposition Yposition Zposition Xrotation Zrotation Yrotation
	JOINT abdomen
	{
		OFFSET 0.000000 3.402643 0.000000 
		CHANNELS 3 Xrotation Zrotation Yrotation
		JOINT chest
		{
			OFFSET 0.000000 8.438565 -0.680529 
			CHANNELS 3 Xrotation Zrotation Yrotation
			JOINT neck
			{
				OFFSET 0.000000 10.207942 -0.272212 
				CHANNELS 3 Xrotation Zrotation Yrotation
				JOINT head
				{
					OFFSET 0.000000 3.130431 0.000000 
					CHANNELS 3 Xrotation Zrotation Yrotation
					End Site
					{
						OFFSET 0.000000 3.130435 0.000000 
					}
				}
			}
			JOINT lCollar
			{
				OFFSET 3.470700 6.669187 -0.816635 
				CHANNELS 3 Yrotation Zrotation Xrotation
				JOINT lShldr
				{
					OFFSET 3.198488 0.000000 0.000000 
					CHANNELS 3 Zrotation Yrotation Xrotation
					JOINT lForeArm
					{
						OFFSET 10.139888 0.000000 0.000000 
						CHANNELS 3 Yrotation Zrotation Xrotation
						JOINT lHand
						{
							OFFSET 8.370511 0.000000 0.000000 
							CHANNELS 3 Zrotation Yrotation Xrotation
							End Site
							{
								OFFSET 4.083176 0.000000 0.000000 
							}
						}
					}
				}
			}
			JOINT rCollar
			{
				OFFSET -3.470700 6.669187 -0.816635 
				CHANNELS 3 Yrotation Zrotation Xrotation
				JOINT rShldr
				{
					OFFSET -3.198488 0.000000 0.000000 
					CHANNELS 3 Zrotation Yrotation Xrotation
					JOINT rForeArm
					{
						OFFSET -10.139888 0.000000 0.000000 
						CHANNELS 3 Yrotation Zrotation Xrotation
						JOINT rHand
						{
							OFFSET -8.370511 0.000000 0.000000 
							CHANNELS 3 Zrotation Yrotation Xrotation
							End Site
							{
								OFFSET -4.083176 0.000000 0.000000 
							}
						}
					}
				}
			}
		}
	}
	JOINT lThigh
	{
		OFFSET 5.308129 -1.633274 1.361059 
		CHANNELS 3 Xrotation Zrotation Yrotation
		JOINT lShin
		{
			OFFSET -2.041588 -20.007561 0.000000 
			CHANNELS 3 Xrotation Zrotation Yrotation
			JOINT lFoot
			{
				OFFSET 0.000000 -19.190928 -1.224953 
				CHANNELS 3 Xrotation Yrotation Zrotation
				End Site
				{
					OFFSET 0.000000 -2.449906 4.627600 
				}
			}
		}
	}
	JOINT rThigh
	{
		OFFSET -5.308129 -1.633274 1.361059 
		CHANNELS 3 Xrotation Zrotation Yrotation
		JOINT rShin
		{
			OFFSET 2.041588 -20.007561 0.000000 
			CHANNELS 3 Xrotation Zrotation Yrotation
			JOINT rFoot
			{
				OFFSET 0.000000 -19.190928 -1.224953 
				CHANNELS 3 Xrotation Yrotation Zrotation
				End Site
				{
					OFFSET 0.000000 -2.449906 4.627600 
				}
			}
		}
	}
}
MOTION
Frames: 15
Frame Time: 0.016667
-0.375938 44.805698 0.303469 -0.430044 -2.333920 -2.550860 -22.889099 0.385704 0.695129 14.814500 0.019433 0.388674 20.275679 -4.843840 -4.078357 13.956800 4.491210 -0.821949 2.000000 -2.000000 0.000000 89.225197 166.923004 -3.780940 38.437901 -0.321937 0.085050 0.044670 0.003445 -135.690994 -2.000000 2.000000 0.000000 -90.304604 -160.585999 -4.218620 -43.389099 0.314202 0.093921 -0.055519 -0.009168 -130.143997 -6.446638 3.199957 -4.465209 25.362730 3.697399 1.704794 -22.780493 11.319001 5.064688 3.790527 0.447514 -0.696465 3.692646 -4.277947 -0.145386 -13.703397 -7.605732 -2.179499 
-0.370387 44.803371 0.303616 -0.459375 -2.363210 -2.520140 -22.869499 0.392577 0.713454 14.843800 0.000000 0.400391 20.297379 -4.840040 -4.071050 13.956800 4.491210 -0.821949 2.000000 -2.000000 0.000000 89.205704 166.923004 -3.761410 38.477001 -0.321879 0.085123 0.044667 0.003335 -135.729996 -2.000000 2.000000 0.000000 -90.324203 -160.595993 -4.267420 -43.369598 0.314234 0.093887 -0.055512 -0.009114 -130.164001 -6.461717 3.201541 -4.513200 25.430836 3.704466 1.705829 -22.823261 11.458163 5.125822 3.819345 0.473312 -0.721276 3.700747 -4.283859 -0.144859 -13.691377 -7.580669 -2.186309 
-0.366795 44.799000 0.308533 -0.508256 -2.392480 -2.547160 -22.830200 0.422181 0.764606 14.921900 -0.019436 0.431620 20.386620 -4.713531 -4.051743 13.997000 4.557910 -0.807080 2.000000 -2.000000 0.000000 89.205597 166.932999 -3.663730 38.506302 -0.321835 0.085178 0.044662 0.003089 -135.817993 -2.000000 2.000000 0.000000 -90.363297 -160.645004 -4.345430 -43.320702 0.314314 0.093802 -0.055535 -0.009304 -130.095993 -6.428311 3.237903 -4.465876 25.500753 3.701151 1.714372 -22.837688 11.472462 5.135861 3.865423 0.492123 -0.706192 3.711205 -4.287233 -0.135796 -13.689592 -7.591100 -2.169991 
-0.363203 44.794498 0.313448 -0.547364 -2.421760 -2.584310 -22.781099 0.451799 0.815791 14.990200 -0.029159 0.452060 20.476089 -4.586986 -4.012839 14.037300 4.624600 -0.792122 2.000000 -2.000000 0.000000 89.205597 166.951996 -3.566030 38.535599 -0.321792 0.085232 0.044657 0.002816 -135.916000 -2.000000 2.000000 0.000000 -90.402397 -160.703995 -4.413650 -43.262199 0.314409 0.093700 -0.055558 -0.009494 -130.026993 -6.401432 3.278206 -4.398208 25.528481 3.709085 1.696407 -22.833117 11.501684 5.154685 3.930427 0.503443 -0.670638 3.702284 -4.282035 -0.135664 -13.679343 -7.585831 -2.177423 
-0.358351 44.788197 0.316834 -0.625563 -2.431500 -2.668800 -22.751600 0.490410 0.863170 15.009800 -0.019440 0.480400 20.550262 -4.578357 -4.012491 14.076600 4.633580 -0.787272 2.000000 -2.000000 0.000000 89.147003 166.912994 -3.585650 38.555099 -0.321762 0.085269 0.044656 0.002734 -135.945007 -2.000000 2.000000 0.000000 -90.460999 -160.723007 -4.423370 -43.232899 0.314457 0.093650 -0.055554 -0.009467 -130.037003 -6.301394 3.268135 -4.334354 25.558962 3.708458 1.715569 -22.889881 11.523348 5.163029 4.003411 0.477595 -0.559544 3.698275 -4.273084 -0.144891 -13.684144 -7.528147 -2.180979 
-0.353498 44.781773 0.320222 -0.693984 -2.431460 -2.763550 -22.731701 0.520009 0.914313 15.029300 -0.019440 0.509694 20.614916 -4.566947 -4.019932 14.106300 4.652320 -0.781496 2.000000 -2.000000 0.000000 89.098198 166.884003 -3.615020 38.584400 -0.321719 0.085323 0.044655 0.002679 -135.964996 -2.000000 2.000000 0.000000 -90.519699 -160.742996 -4.423320 -43.203602 0.314505 0.093599 -0.055551 -0.009440 -130.046997 -6.238693 3.272133 -4.278074 25.649551 3.698071 1.722363 -22.979496 11.537331 5.196743 4.077767 0.458395 -0.477126 3.723403 -4.290092 -0.145431 -13.719707 -7.496917 -2.133699 
-0.343547 44.778038 0.324552 -0.693999 -2.460760 -2.870620 -22.731501 0.555166 0.952489 15.078100 -0.009721 0.538040 20.625587 -4.600572 -4.002701 14.115800 4.632930 -0.774351 2.000000 -2.000000 0.000000 88.990799 166.815994 -3.790950 38.564899 -0.321748 0.085287 0.044659 0.002898 -135.886993 -2.000000 2.000000 0.000000 -90.578300 -160.772003 -4.423250 -43.203602 0.314505 0.093599 -0.055545 -0.009386 -130.065994 -6.225224 3.275147 -4.269058 25.687698 3.707841 1.724242 -23.053961 11.604424 5.248205 4.087715 0.463298 -0.357943 3.703017 -4.282398 -0.155178 -13.703380 -7.413517 -2.133273 
-0.333596 44.774445 0.328881 -0.694015 -2.490050 -2.977690 -22.731400 0.586895 0.981521 15.117200 -0.009722 0.557565 20.633068 -4.643585 -4.013144 14.115700 4.623320 -0.776058 2.000000 -2.000000 0.000000 88.893097 166.757004 -3.966870 38.555099 -0.321762 0.085269 0.044662 0.003089 -135.817993 -2.000000 2.000000 0.000000 -90.627098 -160.800995 -4.413410 -43.203602 0.314505 0.093599 -0.055538 -0.009331 -130.085999 -6.184113 3.291228 -4.270991 25.726646 3.708688 1.714387 -23.162390 11.706739 5.282574 4.080022 0.463999 -0.260182 3.723415 -4.290082 -0.145430 -13.710924 -7.341444 -2.095010 
-0.328524 44.773151 0.334072 -0.664700 -2.509600 -3.037330 -22.750900 0.595874 0.977682 15.146500 0.000000 0.556641 20.597570 -4.694198 -4.009634 14.105400 4.594640 -0.772194 2.000000 -2.000000 0.000000 88.834503 166.688995 -4.133050 38.535599 -0.321792 0.085232 0.044670 0.003445 -135.690994 -2.000000 2.000000 0.000000 -90.646698 -160.830994 -4.393810 -43.213299 0.314489 0.093616 -0.055538 -0.009331 -130.085999 -6.211649 3.299575 -4.259988 25.747204 3.705479 1.723267 -23.232849 11.731956 5.332352 4.066396 0.457209 -0.202881 3.714006 -4.284810 -0.135550 -13.739189 -7.256424 -2.096370 
-0.323452 44.771870 0.339264 -0.645155 -2.519370 -3.096670 -22.760700 0.604865 0.973871 15.175800 0.000000 0.556641 20.561794 -4.744827 -4.024841 14.085300 4.566110 -0.778864 2.000000 -2.000000 0.000000 88.775902 166.630997 -4.308960 38.515999 -0.321821 0.085196 0.044678 0.003800 -135.563995 -2.000000 2.000000 0.000000 -90.666199 -160.860001 -4.374210 -43.213299 0.314489 0.093616 -0.055541 -0.009358 -130.076004 -6.245233 3.298170 -4.258194 25.777002 3.706940 1.733108 -23.272676 11.760633 5.355983 4.050062 0.467869 -0.134303 3.725697 -4.288103 -0.145228 -13.746953 -7.182504 -2.058353 
-0.319777 44.772133 0.346804 -0.606068 -2.548690 -3.146900 -22.790199 0.606966 0.951695 15.185500 0.000000 0.546875 20.542009 -4.708404 -4.022138 14.075700 4.575880 -0.777941 2.000000 -2.000000 0.000000 88.697800 166.621994 -4.641020 38.320702 -0.322110 0.084831 0.044698 0.004566 -135.291000 -2.000000 2.000000 0.000000 -90.656502 -160.878998 -4.354630 -43.271900 0.314393 0.093718 -0.055548 -0.009413 -130.057007 -6.274329 3.337987 -4.207721 25.786713 3.705104 1.722936 -23.288548 11.747548 5.359862 4.022812 0.493726 -0.074896 3.707512 -4.278506 -0.154783 -13.785414 -7.145115 -2.063512 
-0.316100 44.772381 0.354344 -0.576756 -2.577990 -3.196740 -22.819700 0.605635 0.920366 15.205100 0.000000 0.537109 20.519438 -4.681340 -4.019382 14.056300 4.585820 -0.777802 2.000000 -2.000000 0.000000 88.619797 166.604004 -4.973090 38.125401 -0.322398 0.084464 0.044721 0.005331 -135.016998 -2.000000 2.000000 0.000000 -90.646698 -160.889008 -4.325310 -43.320702 0.314314 0.093802 -0.055554 -0.009467 -130.037003 -6.246885 3.380726 -4.159611 25.719276 3.696010 1.731156 -23.278414 11.721169 5.352973 3.989555 0.512073 -0.055955 3.711918 -4.286617 -0.135734 -13.853803 -7.092700 -2.062852 
-0.313671 44.774185 0.359531 -0.566963 -2.538940 -3.197560 -22.829500 0.589761 0.905827 15.224600 0.029170 0.514861 20.511835 -4.638335 -4.017932 14.056600 4.605050 -0.793940 2.000000 -2.000000 0.000000 88.668503 166.514999 -4.856110 38.193802 -0.322298 0.084593 0.044706 0.004866 -135.184006 -2.000000 2.000000 0.000000 -90.637001 -160.917999 -4.295940 -43.359798 0.314250 0.093870 -0.055535 -0.009304 -130.095993 -6.274214 3.332244 -4.178354 25.746799 3.705528 1.713578 -23.259048 11.744858 5.342852 3.983692 0.473546 -0.050363 3.712052 -4.286503 -0.135722 -13.864948 -7.116432 -2.065042 
-0.311241 44.775986 0.364717 -0.557175 -2.509650 -3.198280 -22.829700 0.570475 0.882182 15.244100 0.048618 0.503292 20.503962 -4.595348 -4.036006 14.056700 4.614660 -0.802009 2.000000 -2.000000 0.000000 88.726997 166.427002 -4.729360 38.252300 -0.322211 0.084703 0.044694 0.004429 -135.339996 -2.000000 2.000000 0.000000 -90.627197 -160.957001 -4.266550 -43.389099 0.314202 0.093921 -0.055515 -0.009141 -130.154007 -6.253111 3.294102 -4.208981 25.677553 3.703977 1.703986 -23.198696 11.754429 5.341083 3.968573 0.426816 -0.046189 3.707295 -4.278197 -0.145012 -13.878833 -7.127694 -2.083617 
-0.309767 44.778690 0.369676 -0.527831 -2.460830 -3.170720 -22.859100 0.538718 0.853083 15.253900 0.077791 0.490827 20.442600 -4.526311 -4.047629 14.018000 4.644150 -0.809847 2.000000 -2.000000 0.000000 88.736801 166.358994 -4.797880 38.213299 -0.322269 0.084629 0.044698 0.004593 -135.281006 -2.000000 2.000000 0.000000 -90.578400 -160.938004 -4.247070 -43.477001 0.314057 0.094073 -0.055487 -0.008897 -130.242004 -6.216439 3.224412 -4.357919 25.569696 3.699072 1.703681 -23.240526 11.820374 5.388384 3.965060 0.379480 -0.070697 3.693532 -4.276685 -0.135519 -13.963785 -7.108935 -2.090074 
